<?xml version="1.0" encoding="UTF-8" standalone="no"?>
<!-- Generator: Adobe Illustrator 16.0.0, SVG Export Plug-In . SVG Version: 6.00 Build 0)  -->

<svg
   xmlns:dc="http://purl.org/dc/elements/1.1/"
   xmlns:cc="http://creativecommons.org/ns#"
   xmlns:rdf="http://www.w3.org/1999/02/22-rdf-syntax-ns#"
   xmlns:svg="http://www.w3.org/2000/svg"
   xmlns="http://www.w3.org/2000/svg"
   xmlns:sodipodi="http://sodipodi.sourceforge.net/DTD/sodipodi-0.dtd"
   xmlns:inkscape="http://www.inkscape.org/namespaces/inkscape"
   version="1.1"
   id="Capa_1"
   x="0px"
   y="0px"
   width="469.933px"
   height="469.933px"
   viewBox="0 0 469.933 469.933"
   style="enable-background:new 0 0 469.933 469.933;"
   xml:space="preserve"
   inkscape:version="0.48.4 r9939"
   sodipodi:docname="checkmark4.svg"><metadata
     id="metadata43"><rdf:RDF><cc:Work
         rdf:about=""><dc:format>image/svg+xml</dc:format><dc:type
           rdf:resource="http://purl.org/dc/dcmitype/StillImage" /></cc:Work></rdf:RDF></metadata><defs
     id="defs41" /><sodipodi:namedview
     pagecolor="#ffffff"
     bordercolor="#666666"
     borderopacity="1"
     objecttolerance="10"
     gridtolerance="10"
     guidetolerance="10"
     inkscape:pageopacity="0"
     inkscape:pageshadow="2"
     inkscape:window-width="673"
     inkscape:window-height="480"
     id="namedview39"
     showgrid="false"
     inkscape:zoom="0.50219923"
     inkscape:cx="234.96651"
     inkscape:cy="234.96651"
     inkscape:window-x="0"
     inkscape:window-y="30"
     inkscape:window-maximized="0"
     inkscape:current-layer="g5" /><g
     id="g3"
     style="fill:#94e7a2;fill-opacity:1"><g
       id="g5"
       style="fill:#94e7a2;fill-opacity:1"><path
         d="m 429.281,44.605 c -3.265,-5.763 -8.479,-8.939 -14.681,-8.939 -3.482,0 -6.997,1.018 -9.912,2.818 -2.046,0.967 -3.783,2.178 -5.306,3.702 -92.628,92.594 -171.423,169.412 -254.288,242.798 l -43.498,-52.811 c -4.222,-5.126 -8.927,-6.203 -12.126,-6.203 -3.846,0 -7.782,1.559 -10.778,4.154 l -0.708,0.375 c -23.564,15.15 -45.603,27.865 -67.362,38.864 -5.799,2.925 -9.178,7.982 -9.335,13.939 -2.687,6.586 -1.117,13.533 4.25,18.661 19.466,18.626 37.567,39.212 55.076,59.123 19.142,21.77 38.93,44.285 60.651,64.399 0.77,0.726 1.618,1.376 2.569,2.006 3.227,4.315 7.751,6.773 12.474,6.773 3.359,0 6.649,-1.198 9.785,-3.564 60.715,-45.809 114.879,-97.518 155.29,-137.445 11.856,-11.726 23.77,-23.436 35.692,-35.146 41.757,-41.032 84.935,-83.464 125.782,-126.53 2.234,-2.349 3.752,-5.073 4.514,-8.094 3.575,-5.545 3.407,-12.056 -0.492,-17.941 C 452.772,84.295 440.468,64.359 429.281,44.605 z M 142.286,330.057 c 4.108,0 8.221,-1.737 11.626,-4.885 574.08686,-400.769873 -114.41384,-9.7583 -11.626,4.885 z"
         id="path7"
         style="fill:#94e7a2;fill-opacity:1"
         inkscape:connector-curvature="0"
         sodipodi:nodetypes="cscccssccccccccscccccccccc" /></g></g><g
     id="g9" /><g
     id="g11" /><g
     id="g13" /><g
     id="g15" /><g
     id="g17" /><g
     id="g19" /><g
     id="g21" /><g
     id="g23" /><g
     id="g25" /><g
     id="g27" /><g
     id="g29" /><g
     id="g31" /><g
     id="g33" /><g
     id="g35" /><g
     id="g37" /></svg>
