<?xml version="1.0" encoding="UTF-8" standalone="no"?>
<!-- Generator: Adobe Illustrator 16.0.0, SVG Export Plug-In . SVG Version: 6.00 Build 0)  -->

<svg
   xmlns:dc="http://purl.org/dc/elements/1.1/"
   xmlns:cc="http://creativecommons.org/ns#"
   xmlns:rdf="http://www.w3.org/1999/02/22-rdf-syntax-ns#"
   xmlns:svg="http://www.w3.org/2000/svg"
   xmlns="http://www.w3.org/2000/svg"
   xmlns:sodipodi="http://sodipodi.sourceforge.net/DTD/sodipodi-0.dtd"
   xmlns:inkscape="http://www.inkscape.org/namespaces/inkscape"
   version="1.1"
   id="Capa_1"
   x="0px"
   y="0px"
   width="467.276px"
   height="467.276px"
   viewBox="0 0 467.276 467.276"
   style="enable-background:new 0 0 467.276 467.276;"
   xml:space="preserve"
   inkscape:version="0.48.4 r9939"
   sodipodi:docname="smile4.svg"><metadata
     id="metadata49"><rdf:RDF><cc:Work
         rdf:about=""><dc:format>image/svg+xml</dc:format><dc:type
           rdf:resource="http://purl.org/dc/dcmitype/StillImage" /></cc:Work></rdf:RDF></metadata><defs
     id="defs47" /><sodipodi:namedview
     pagecolor="#ffffff"
     bordercolor="#666666"
     borderopacity="1"
     objecttolerance="10"
     gridtolerance="10"
     guidetolerance="10"
     inkscape:pageopacity="0"
     inkscape:pageshadow="2"
     inkscape:window-width="640"
     inkscape:window-height="480"
     id="namedview45"
     showgrid="false"
     inkscape:zoom="0.50505483"
     inkscape:cx="233.638"
     inkscape:cy="233.638"
     inkscape:window-x="0"
     inkscape:window-y="30"
     inkscape:window-maximized="0"
     inkscape:current-layer="Capa_1" /><g
     id="g3"
     style="fill:#ffffff"><g
       id="g5"
       style="fill:#ffffff"><path
         d="M379.281,51.144C348.254,24.297,309.565,13.46,269.577,8.672C163.068-25.3,68.062,44.959,26.578,142.38    c-44.714,105.002-23.44,222.217,73.516,287.698c98.985,66.846,235.019,39.369,310.95-48.627    C494.023,285.274,473.539,132.719,379.281,51.144z M196.847,432.703C140.695,424.71,86.21,390.16,57.756,340.898    c-25.438-44.047-25.225-99.203-13.822-147.312c17.529-73.96,70.568-140.71,139.888-156.686c0.104,0.005,0.19,0.035,0.295,0.035    c24.95,0.739,51.292,0.782,77.046,3.567c2.438,0.764,4.88,1.523,7.332,2.42c4.062,1.48,7.612,1.29,10.588,0.071    c27.781,4.677,54.313,13.579,76.951,31.392c50.079,39.405,76.479,110.461,75.032,172.696    C428.354,364.389,307.965,448.516,196.847,432.703z"
         id="path7"
         style="fill:#ffffff" /><path
         d="M169.276,211.913c23.28,0,23.28-36.104,0-36.104C145.999,175.808,145.999,211.913,169.276,211.913z"
         id="path9"
         style="fill:#ffffff" /><path
         d="M293.833,213.715c23.277,0,23.277-36.102,0-36.102C270.551,177.613,270.551,213.715,293.833,213.715z"
         id="path11"
         style="fill:#ffffff" /><path
         d="M302.731,274.966c-43.25,42.975-99.046,38.689-142.352-1.808c-16.98-15.879-42.566,9.598-25.529,25.532    c57.625,53.893,136.062,58.787,193.407,1.802C344.792,284.065,319.254,258.544,302.731,274.966z"
         id="path13"
         style="fill:#ffffff" /></g></g><g
     id="g15" /><g
     id="g17" /><g
     id="g19" /><g
     id="g21" /><g
     id="g23" /><g
     id="g25" /><g
     id="g27" /><g
     id="g29" /><g
     id="g31" /><g
     id="g33" /><g
     id="g35" /><g
     id="g37" /><g
     id="g39" /><g
     id="g41" /><g
     id="g43" /></svg>